PathFileType  4	(X/Y/Z) C:\Users\antoi\Documents\MyRepositories\mobilecap\ResultsAnalysis
DataRate	CameraRate	NumFrames	NumMarkers	Units	OrigDataRate	OrigDataStartFrame	OrigNumFrames
100.0	100.0	4	51	mm	100.0	227	259
Frame#	Time	r_knee			r_shank_antsup			r_ankle			r_calc			r_5meta			r_toe			L_knee			L_shank_antsup			L_ankle			L_calc			L_5meta			L_toe			r_sh2			r_sh3			r_sh4			L_sh2			L_sh3			r_thigh1			r_thigh2			r_thigh3			r_thigh4			r_thigh5			L_thigh1			L_thigh2			L_thigh3			L_thigh4			r.ASIS			r.PSIS			L.ASIS			L.PSIS			C7			R_Shoulder			L_Shoulder			R_Sternum			L_Sternum			R_humerus			R_elbow_med			R_elbow_lat			R_forearm			R_wrist_radius			R_wrist_ulna			L_humerus			L_elbow_med			L_elbow_lat			L_forearm			L_wrist_radius			L_wrist_ulna			R_HJC			L_HJC			R_HJC_reg			L_HJC_reg			
		X1	Y1	Z1	X2	Y2	Z2	X3	Y3	Z3	X4	Y4	Z4	X5	Y5	Z5	X6	Y6	Z6	X7	Y7	Z7	X8	Y8	Z8	X9	Y9	Z9	X10	Y10	Z10	X11	Y11	Z11	X12	Y12	Z12	X13	Y13	Z13	X14	Y14	Z14	X15	Y15	Z15	X16	Y16	Z16	X17	Y17	Z17	X18	Y18	Z18	X19	Y19	Z19	X20	Y20	Z20	X21	Y21	Z21	X22	Y22	Z22	X23	Y23	Z23	X24	Y24	Z24	X25	Y25	Z25	X26	Y26	Z26	X27	Y27	Z27	X28	Y28	Z28	X29	Y29	Z29	X30	Y30	Z30	X31	Y31	Z31	X32	Y32	Z32	X33	Y33	Z33	X34	Y34	Z34	X35	Y35	Z35	X36	Y36	Z36	X37	Y37	Z37	X38	Y38	Z38	X39	Y39	Z39	X40	Y40	Z40	X41	Y41	Z41	X42	Y42	Z42	X43	Y43	Z43	X44	Y44	Z44	X45	Y45	Z45	X46	Y46	Z46	X47	Y47	Z47	X48	Y48	Z48	X49	Y49	Z49	X50	Y50	Z50	X51	Y51	Z51	

227	2.26000000	-252.62854	1071.85423	-325.59383	-225.46891	952.65865	-325.85177	-310.47794	615.34852	-367.63064	-351.96672	612.43070	-441.46507	-226.43288	479.94044	-319.36713	-157.27458	506.86860	-355.80058	-257.91921	1101.25649	-710.27940	-216.17965	998.59103	-710.76432	-293.30622	654.59058	-749.12902	-352.48360	634.43170	-692.65739	-180.15081	538.71811	-791.07157	-134.81402	553.74449	-728.99755	-217.33920	838.83185	-342.96127	-300.58221	943.33375	-305.70174	-289.10712	825.62075	-304.91961	-299.82481	1002.52893	-743.88281	-277.44238	884.77838	-773.89150	-146.84755	1299.80071	-312.04339	-151.16299	1188.46277	-332.81472	-190.29162	1158.89683	-286.97738	-246.89760	1290.38999	-259.77135	-244.04649	1174.72463	-284.18484	-164.11116	1348.65126	-696.19762	-162.93905	1211.70568	-695.89473	-271.33874	1347.43440	-731.83738	-269.93276	1208.54865	-726.40369	-150.28896	1564.49858	-332.35655	-333.39797	1653.16993	-415.91273	-141.77687	1589.09568	-595.92996	-331.53453	1664.73850	-513.35078	-124.08341	2126.66632	-406.95268	-107.00200	2055.52359	-227.43845	-57.52790	2076.83103	-569.60693	-17.77167	1995.90819	-369.66844	-23.24571	1988.44784	-409.39114	-183.02664	1913.19865	-148.77817	-333.73156	1735.62547	-194.13770	-344.59672	1777.46415	-120.37416	-327.59785	1625.48030	-35.73583	-345.20750	1520.44861	14.52459	-385.25388	1528.96728	21.44627	-111.41862	1948.59121	-693.66224	-277.09234	1793.46065	-715.81111	-245.23739	1817.67292	-785.92855	-172.37656	1665.80028	-815.16736	-153.97415	1566.86851	-868.95908	-192.86694	1567.89779	-894.34859	-246.20516	1510.07792	-376.99721	-238.63135	1519.34341	-590.05338	-237.16958	1505.94610	-378.91344	-233.85002	1526.55176	-552.46786	
228	2.27000000	-251.82951	1061.80926	-324.09037	-224.62777	942.48282	-324.50789	-309.66805	605.56442	-366.52554	-350.84381	602.15613	-440.67781	-225.78764	470.73401	-316.83292	-156.45697	497.43369	-353.16007	-256.17307	1091.00507	-709.11598	-214.33227	988.53486	-709.20937	-290.54887	644.41845	-747.84168	-350.04999	624.02200	-691.64740	-176.63720	529.02422	-788.93356	-131.84921	544.21194	-726.39190	-216.45384	828.70642	-341.75127	-299.61767	933.11674	-304.47599	-288.47083	815.37362	-304.12818	-297.74429	992.15005	-742.75640	-274.88018	874.45543	-772.80835	-146.94325	1290.37602	-311.47196	-150.84216	1178.93071	-331.90606	-189.53581	1149.23346	-285.93887	-246.37047	1280.48599	-258.40864	-243.26943	1164.81992	-282.82815	-163.56034	1338.61167	-694.01563	-161.96343	1201.68673	-693.66498	-270.56488	1336.99042	-731.53757	-268.64246	1198.32094	-725.24099	-151.54076	1554.94881	-330.99224	-334.57745	1643.04897	-415.10015	-142.31829	1579.17387	-594.72494	-332.71529	1654.36644	-512.75503	-126.40265	2116.84368	-405.16286	-108.58960	2046.46320	-226.02657	-59.36576	2067.42217	-567.41334	-19.38094	1986.48070	-367.38628	-24.36995	1979.29617	-407.40363	-182.10861	1901.73855	-149.88731	-333.00786	1724.17998	-195.90014	-343.21026	1764.38467	-121.19122	-317.92503	1611.57095	-39.85209	-329.85884	1505.25207	9.42510	-370.04087	1511.86661	17.34056	-111.41828	1938.10037	-690.54961	-276.86076	1781.95853	-714.24905	-242.89996	1804.96302	-783.96989	-160.86067	1655.83062	-803.43534	-133.87946	1556.47558	-852.08916	-172.27190	1553.70118	-878.65748	-247.15598	1500.21241	-375.84127	-239.07392	1509.14686	-588.89207	-237.99871	1496.26797	-377.39745	-234.68606	1516.40105	-551.10627	
229	2.28000000	-251.03241	1050.61641	-322.52425	-223.92336	931.28367	-322.92129	-308.92949	594.42262	-365.04426	-349.93304	590.77341	-439.35986	-224.97049	460.04815	-314.50184	-155.59884	486.76656	-350.73757	-254.57984	1079.73399	-707.99662	-212.54834	977.39000	-707.52425	-287.88577	633.28605	-746.68953	-347.78709	612.63763	-690.81649	-173.26193	518.25236	-786.62586	-129.08499	533.47115	-723.57443	-215.64623	817.44750	-340.14470	-298.83172	921.78699	-303.06718	-288.33757	804.07186	-303.36803	-295.67810	980.85735	-741.76143	-272.34060	863.16817	-771.56199	-147.18320	1279.43147	-311.55605	-150.47582	1168.24333	-330.95825	-188.69887	1138.38861	-284.85671	-245.92080	1269.53196	-257.26893	-242.35654	1153.78519	-281.30683	-163.19900	1327.54399	-692.12210	-161.25656	1190.67392	-691.88909	-270.08957	1325.53220	-730.76274	-267.72898	1187.05950	-724.20758	-152.73563	1544.19321	-329.65228	-335.68116	1631.92909	-414.38192	-142.87727	1567.86305	-593.26714	-333.66477	1643.28098	-512.33290	-128.75428	2105.97987	-403.34956	-110.17294	2036.33709	-224.61572	-61.25740	2057.09336	-564.98661	-21.08540	1975.95955	-365.23211	-25.58657	1969.10376	-405.54156	-182.32420	1890.10589	-149.34862	-332.72266	1712.09056	-197.24233	-342.33088	1750.99773	-121.61425	-308.36153	1598.10461	-43.33907	-314.37538	1490.79669	5.06303	-354.53094	1495.53834	14.06943	-111.85440	1927.11947	-688.04900	-277.40080	1769.67876	-713.89622	-240.85054	1792.28081	-783.07157	-149.85950	1647.30078	-792.20442	-113.79058	1548.61075	-835.58184	-150.74575	1542.10769	-863.18929	-248.29461	1489.32085	-374.65548	-239.59344	1497.82072	-587.70061	-238.89529	1485.12148	-376.19537	-235.32197	1505.24128	-549.80306	
230	2.29000000	-250.12210	1038.23098	-320.93389	-223.29616	919.02275	-321.11154	-308.27288	582.00158	-363.13047	-349.31014	578.21237	-437.38289	-223.88502	448.26273	-311.99488	-154.64830	474.97747	-348.47564	-253.19066	1067.47415	-706.96279	-210.81220	965.15892	-705.95763	-285.27254	621.05151	-745.50483	-345.80258	600.16132	-690.30000	-170.00147	506.31729	-784.22662	-126.52180	521.54165	-720.60800	-214.90450	805.05441	-338.32073	-298.13403	909.34544	-301.33698	-288.02057	791.68891	-301.97629	-293.64592	968.62965	-741.04997	-269.90655	850.89312	-770.30896	-147.67210	1267.16768	-311.80439	-150.02878	1156.37735	-330.13784	-187.80009	1126.38705	-283.67895	-245.45283	1257.51541	-256.06378	-241.51153	1141.53471	-279.82931	-162.96477	1315.59554	-690.84283	-160.66391	1178.65221	-690.50496	-269.75641	1313.14359	-729.58214	-267.10595	1174.63260	-722.91061	-153.87851	1532.21333	-328.49531	-336.74235	1619.78192	-413.85575	-143.48335	1555.46127	-591.91425	-334.41217	1631.46931	-511.92747	-131.08102	2094.04880	-401.52041	-111.69420	2025.13001	-223.03933	-63.22283	2045.81720	-562.87088	-22.93001	1964.36870	-363.38662	-26.98513	1957.90776	-403.98743	-183.02387	1877.98910	-148.51305	-333.02290	1699.54202	-198.19623	-341.94053	1737.36844	-121.43178	-299.05090	1584.96517	-46.30056	-298.92690	1477.02596	1.36241	-338.98297	1479.74652	11.32079	-112.62571	1915.66068	-686.19381	-278.35805	1756.90310	-714.83906	-239.06226	1779.60273	-783.05378	-139.61416	1640.31465	-781.73688	-94.13271	1543.35032	-819.40522	-128.84131	1533.28353	-848.67831	-249.52459	1477.35088	-373.68157	-240.20742	1485.57837	-586.71295	-239.88316	1472.50707	-375.54430	-235.76272	1493.16991	-548.93350	
